<svg xmlns="http://www.w3.org/2000/svg" width="92" height="92" viewBox="0 0 92 92">
  <g id="Grupo_160536" data-name="Grupo 160536" transform="translate(3380 6124)">
    <rect id="Rectángulo_35325" data-name="Rectángulo 35325" width="92" height="92" transform="translate(-3380 -6124)" fill="none"/>
    <g id="layer1" transform="translate(-3364.827 -6388.894)">
      <path id="path3032" d="M12.646,280.595a1.01,1.01,0,0,0-1.006,1.014V290.7H3.559a3.046,3.046,0,0,0-3.03,3.03v2.02a1.01,1.01,0,1,0,2.02,0v-2.02a.986.986,0,0,1,1.01-1.01H11.64v2.02H5.579a1.01,1.01,0,0,0-1.01,1.01v28.278a1.01,1.01,0,0,0,1.01,1.01h50.5a1.01,1.01,0,0,0,1.01-1.01V295.748a1.01,1.01,0,0,0-1.01-1.01H50.02v-2.02h8.075a.986.986,0,0,1,1.01,1.01v36.357a.986.986,0,0,1-1.01,1.01H3.559a.986.986,0,0,1-1.01-1.01V304.837a1.01,1.01,0,1,0-2.02,0v25.248a3.046,3.046,0,0,0,3.03,3.03H24.643a13.25,13.25,0,0,1-3.349,6.058H18.706a1.01,1.01,0,1,0,0,2.02H42.944a1.01,1.01,0,1,0,0-2.02H40.36a13.224,13.224,0,0,1-3.383-6.058H58.095a3.046,3.046,0,0,0,3.03-3.03V293.728a3.046,3.046,0,0,0-3.03-3.03H50.02v-9.089a1.01,1.01,0,0,0-1.014-1.014H39.918a1.01,1.01,0,0,0-1.016,1.014v5.048H31.835v-2.02a1.015,1.015,0,0,0-.961-1.006H22.748v-2.022a1.01,1.01,0,0,0-1.014-1.014Zm1.014,2.022h7.068v4.04H13.66Zm27.264,0H48v22.224H40.924Zm-18.177,3.034h7.068v19.19H22.748Zm-9.087,3.028h7.068v2.02H13.66Zm18.175,0H38.9v4.044H31.835Zm-18.175,4.04h7.068v22.216H13.66Zm18.175,2.024H38.9v2.012H31.835ZM6.589,296.758H11.64v18.177H9.621A1.01,1.01,0,0,0,8.6,315.948v4.042A1.01,1.01,0,0,0,9.621,321H52.031a1.01,1.01,0,0,0,1.014-1.006v-4.042a1.01,1.01,0,0,0-1.014-1.014H50.02V296.758h5.046v26.258H6.589Zm-5.065,2.006a1.009,1.009,0,0,0-.994,1.024v1.01a1.01,1.01,0,1,0,2.02,0v-1.01A1.01,1.01,0,0,0,1.523,298.764Zm30.312.011H38.9v16.161H31.835Zm-9.087,8.087h7.068v2.012H22.748Zm18.177,0H48v2.012H40.924Zm-18.177,4.032h7.068v4.042H22.748Zm18.177,0H48v4.042H40.924Zm-30.3,6.06h40.4v2.022h-40.4Zm18.179,10.1a1.01,1.01,0,1,0,0,2.02h4.04a1.01,1.01,0,1,0,0-2.02Zm-2.083,6.061H34.94a12.974,12.974,0,0,0,2.8,6.058H23.909A12.743,12.743,0,0,0,26.722,333.115Z" transform="translate(0)" fill="#fd9827"/>
    </g>
  </g>
</svg>
