<svg xmlns="http://www.w3.org/2000/svg" width="92" height="92" viewBox="0 0 92 92">
  <g id="Grupo_160537" data-name="Grupo 160537" transform="translate(3048 6124)">
    <rect id="Rectángulo_35325" data-name="Rectángulo 35325" width="92" height="92" transform="translate(-3048 -6124)" fill="none"/>
    <path id="estrategia-digital" d="M54.357,13.878a7.021,7.021,0,1,0-5.868-3.18l-4.128,4.16a20.879,20.879,0,0,0-27.481-.017L12.736,10.7A7.021,7.021,0,1,0,10.7,12.736l4.145,4.145a20.879,20.879,0,0,0,.014,27.478L10.7,48.489a7.021,7.021,0,1,0,2.038,2.039L16.9,46.4a20.88,20.88,0,0,0,27.446-.014l4.145,4.145a7.021,7.021,0,1,0,2.039-2.039l-4.145-4.145A20.88,20.88,0,0,0,46.4,16.9l4.13-4.163a6.968,6.968,0,0,0,3.828,1.142Zm0-11.139a4.128,4.128,0,1,1-4.128,4.128,4.128,4.128,0,0,1,4.128-4.128ZM6.868,11A4.128,4.128,0,1,1,11,6.867,4.128,4.128,0,0,1,6.868,11Zm0,47.489A4.128,4.128,0,1,1,11,54.356,4.128,4.128,0,0,1,6.868,58.484Zm51.617-4.128a4.128,4.128,0,1,1-4.128-4.128A4.128,4.128,0,0,1,58.485,54.356ZM30.612,48.648A18.037,18.037,0,1,1,48.649,30.612,18.057,18.057,0,0,1,30.612,48.648Zm2.926-27.391a7.288,7.288,0,0,0-6.9,4.854,4.83,4.83,0,0,0-5.651,4.412,5.4,5.4,0,0,0-5.039,3.994,4.325,4.325,0,0,0,4.176,5.449H39.54a1.422,1.422,0,0,0,.232-.019,6.744,6.744,0,0,0,.883-13.107,7.287,7.287,0,0,0-7.117-5.583Zm9.009,11.98a3.885,3.885,0,0,1-3.134,3.845H20.125a1.442,1.442,0,0,1-1.392-1.816A2.525,2.525,0,0,1,22.148,33.6a1.442,1.442,0,0,0,1.876-1.918,1.961,1.961,0,0,1,2.867-2.441,1.442,1.442,0,0,0,2.227-1.071,4.441,4.441,0,0,1,8.842,0,1.442,1.442,0,0,0,1.243,1.3A3.884,3.884,0,0,1,42.548,33.237Z" transform="translate(-3032.612 -6108.611)" fill="#fd9827"/>
  </g>
</svg>
